<svg id="Layer_1" enable-background="new 0 0 512 512" height="512" viewBox="0 0 512 512" width="512" xmlns="http://www.w3.org/2000/svg"><g><path d="m512 65.103v306.165c0 17.069-13.837 30.905-30.905 30.905h-296.127l151.937-337.07z" fill="#b5e6a8"/><path d="m481.095 0h-41.207c17.069 0 30.905 13.837 30.905 30.905v340.363c0 17.068-13.837 30.905-30.905 30.905h41.207c17.069 0 30.905-13.837 30.905-30.905v-340.363c0-17.068-13.837-30.905-30.905-30.905z" fill="#a5d998"/><g><g><path d="m512 30.905c0-17.068-13.837-30.905-30.905-30.905h-450.19c-17.068 0-30.905 13.837-30.905 30.905v34.198h512z" fill="#65b9d7"/></g><path d="m481.095 0h-41.207c17.069 0 30.905 13.837 30.905 30.905v34.198h41.207v-34.198c0-17.068-13.837-30.905-30.905-30.905z" fill="#56aac7"/><path d="m184.968 402.174 151.937-337.071h-336.905v307.303c0 17.158 13.976 31.031 31.134 30.905z" fill="#ffe563"/><g><path d="m435.747 286.939h-363.805c-12.854 0-23.274-10.42-23.274-23.274v-82.142c0-12.854 10.42-23.274 23.274-23.274h363.805c12.854 0 23.274 10.42 23.274 23.274v82.142c0 12.854-10.42 23.274-23.274 23.274z" fill="#fff"/><g fill="#ff5781"><path d="m355.258 184.359c-4.267 0-7.726 3.459-7.726 7.726v61.017c0 4.268 3.459 7.726 7.726 7.726s7.726-3.459 7.726-7.726v-61.017c0-4.267-3.459-7.726-7.726-7.726z"/><path d="m256.144 199.812c4.267 0 7.726-3.459 7.726-7.726s-3.459-7.726-7.726-7.726h-25.476c-4.267 0-7.726 3.459-7.726 7.726v60.461c0 4.268 3.459 7.726 7.726 7.726h25.476c4.267 0 7.726-3.459 7.726-7.726 0-4.268-3.459-7.726-7.726-7.726h-17.75v-14.778h15.871c4.267 0 7.726-3.459 7.726-7.726 0-4.268-3.459-7.726-7.726-7.726h-15.871v-14.778h17.75z"/><path d="m302.13 184.359h-16.77c-4.324 0-7.726 3.498-7.726 7.788v58.189c0 4.48 2.9 8.688 7.875 8.688.507-.002 12.467-.047 17.247-.131 17.97-.315 31.012-15.96 31.012-37.201 0-22.33-12.714-37.333-31.638-37.333zm.356 59.084c-2.144.037-5.879.067-9.306.09-.022-6.981-.067-36.455-.08-43.72h9.03c15.019 0 16.186 16.747 16.186 21.88-.001 14.833-7.951 21.612-15.83 21.75z"/><path d="m144.215 238.572c-3.268-2.742-8.141-2.317-10.885.952-3.173 3.782-8.456 5.852-13.302 5.852-12.562 0-22.782-10.22-22.782-22.782s10.22-22.783 22.782-22.783c4.565 0 8.969 1.344 12.733 3.886 3.537 2.387 8.339 1.459 10.727-2.077s1.458-8.339-2.078-10.727c-6.328-4.275-13.722-6.534-21.382-6.534-21.083 0-38.235 17.152-38.235 38.235 0 21.082 17.152 38.234 38.235 38.234 9.553 0 18.963-4.012 25.139-11.371 2.742-3.268 2.316-8.141-.952-10.885z"/><path d="m418.17 184.359h-33.697c-4.267 0-7.726 3.459-7.726 7.726s3.459 7.726 7.726 7.726h9.054v53.291c0 4.268 3.459 7.726 7.726 7.726s7.726-3.459 7.726-7.726v-53.291h9.19c4.267 0 7.726-3.459 7.726-7.726s-3.458-7.726-7.725-7.726z"/><path d="m209.18 207.944c0-13.005-10.982-23.585-24.482-23.585h-16.214c-.003 0-.007.001-.01.001s-.006-.001-.01-.001c-4.267 0-7.726 3.459-7.726 7.726v61.017c0 4.268 3.459 7.726 7.726 7.726s7.726-3.459 7.726-7.726v-17.009l19.463 22.114c2.687 3.053 7.742 3.478 10.904.695 3.203-2.819 3.515-7.701.695-10.904l-15.403-17.5c10.022-2.955 17.331-11.947 17.331-22.554zm-24.482 8.13c-1.97 0-5.295.013-8.419.028-.015-3.043-.029-6.26-.029-8.159 0-1.617-.008-4.941-.017-8.132h8.464c4.894 0 9.029 3.724 9.029 8.132s-4.134 8.131-9.028 8.131z"/></g></g><g><path d="m38.632 40.894c9.943 0 9.96-15.453 0-15.453-9.943 0-9.96 15.453 0 15.453z" fill="#fff"/></g><g><path d="m70.868 40.894c9.943 0 9.96-15.453 0-15.453-9.943 0-9.96 15.453 0 15.453z" fill="#fff"/></g><g><path d="m103.104 40.894c9.943 0 9.96-15.453 0-15.453-9.943 0-9.96 15.453 0 15.453z" fill="#fff"/></g><g><path d="m347.044 317.521.326 194.479 55.822-65.556 86.104 3.691z" fill="#ff5781"/><path d="m411.928 446.818-17.175-39.069c-1.704-3.911-6.257-5.701-10.17-3.995-3.911 1.705-5.7 6.259-3.995 10.17l17.1 38.982 5.504-6.463z" fill="#ff4170"/></g></g></g></svg>