<svg id="Capa_1" enable-background="new 0 0 512 512" height="512" viewBox="0 0 512 512" width="512" xmlns="http://www.w3.org/2000/svg" xmlns:xlink="http://www.w3.org/1999/xlink"><linearGradient id="SVGID_1_" gradientUnits="userSpaceOnUse" x1="256" x2="256" y1="512" y2="0"><stop offset="0" stop-color="#009efd"/><stop offset="1" stop-color="#2af598"/></linearGradient><g><g><path d="m452 392h-40-40c-33.084 0-60 26.916-60 60v60h200v-60c0-33.084-26.916-60-60-60zm20 80h-120v-20c0-11.028 8.972-20 20-20h80c11.028 0 20 8.972 20 20zm-472-20v60h200v-60c0-33.084-26.916-60-60-60h-40-40c-33.084 0-60 26.916-60 60zm140-20c11.028 0 20 8.972 20 20v20h-120v-20c0-11.028 8.972-20 20-20zm176-372c0-33.084-26.916-60-60-60s-60 26.916-60 60 26.916 60 60 60 60-26.916 60-60zm-60 20c-11.028 0-20-8.972-20-20s8.972-20 20-20 20 8.972 20 20-8.972 20-20 20zm216 252c0-26.073-16.722-48.303-40-56.56v-15.44c0-33.084-26.916-60-60-60h-16v-20c0-33.084-26.916-60-60-60h-40-40c-33.084 0-60 26.916-60 60v20h-16c-33.084 0-60 26.916-60 60v15.44c-23.278 8.256-40 30.487-40 56.56 0 33.084 26.916 60 60 60s60-26.916 60-60c0-26.073-16.722-48.303-40-56.56v-15.44c0-11.028 8.972-20 20-20h232c11.028 0 20 8.972 20 20v15.44c-23.278 8.256-40 30.487-40 56.56 0 33.084 26.916 60 60 60s60-26.916 60-60zm-372 20c-11.028 0-20-8.972-20-20s8.972-20 20-20 20 8.972 20 20-8.972 20-20 20zm216-152h-120v-20c0-11.028 8.972-20 20-20h80c11.028 0 20 8.972 20 20zm96 152c-11.028 0-20-8.972-20-20s8.972-20 20-20 20 8.972 20 20-8.972 20-20 20z" fill="url(#SVGID_1_)"/></g></g></svg>