<svg id="Layer_3" enable-background="new 0 0 64 64" height="512" viewBox="0 0 64 64" width="512" xmlns="http://www.w3.org/2000/svg"><g><path d="m5 2h42v56h-42z" fill="#e2e7f6"/><path d="m5 49.824c1.151.116 2.318.176 3.5.176 19.054 0 34.5-15.446 34.5-34.5 0-4.791-.978-9.353-2.743-13.5h-35.257z" fill="#eef1fa"/><path d="m9 22h34v32h-34z" fill="#3279ea"/><g><path d="m9 37h34v2h-34z" fill="#7aadf9"/></g><g><path d="m9 45h34v2h-34z" fill="#7aadf9"/></g><g><path d="m22 41h18v2h-18z" fill="#7aadf9"/></g><g><path d="m22 49h18v2h-18z" fill="#7aadf9"/></g><circle cx="47" cy="50" fill="#fad85d" r="12"/><path d="m38.003 57.922c8.877-.778 15.857-8.363 15.985-17.665-1.97-1.415-4.378-2.257-6.988-2.257-6.627 0-12 5.373-12 12 0 3.04 1.139 5.807 3.003 7.922z" fill="#fce797"/><path d="m32 10h-4v-4h-4v4h-4v4h4v4h4v-4h4z" fill="#d23f34"/><g><path d="m9 29h34v2h-34z" fill="#7aadf9"/></g><g><path d="m18 22h2v32h-2z" fill="#7aadf9"/></g><g><path d="m22 25h18v2h-18z" fill="#7aadf9"/></g><g><path d="m22 33h18v2h-18z" fill="#7aadf9"/></g><g><path d="m12 25h4v2h-4z" fill="#7aadf9"/></g><g><path d="m12 33h4v2h-4z" fill="#7aadf9"/></g><g><path d="m12 41h4v2h-4z" fill="#7aadf9"/></g><g><path d="m12 49h4v2h-4z" fill="#7aadf9"/></g><path d="m47 49c-1.103 0-2-.897-2-2s.897-2 2-2 2 .897 2 2h2c0-1.858-1.279-3.411-3-3.858v-2.142h-2v2.142c-1.721.447-3 2-3 3.858 0 2.206 1.794 4 4 4 1.103 0 2 .897 2 2s-.897 2-2 2-2-.897-2-2h-2c0 1.858 1.279 3.411 3 3.858v2.142h2v-2.142c1.721-.447 3-2 3-3.858 0-2.206-1.794-4-4-4z" fill="#a9adcc"/></g></svg>