<svg id="filled_outline" height="512" viewBox="0 0 512 512" width="512" xmlns="http://www.w3.org/2000/svg" data-name="filled outline"><path d="m24 344h464v96h-464z" fill="#788dff"/><path d="m64 344v-256a16 16 0 0 1 16-16h240a16 16 0 0 1 16 16v256z" fill="#4f5dff"/><path d="m96 128h88v80h-88z" fill="#697dff"/><path d="m96 272h208v72h-208z" fill="#3d46f5"/><path d="m480 256h-160l56 88v72l40-24v-48z" fill="#ffc431"/><path d="m320 216h160v40h-160z" fill="#ffd873"/><circle cx="80" cy="384" fill="#8be0e8" r="16"/><path d="m488 336h-48v16h40v80h-448v-80h320v-16h-328a8 8 0 0 0 -8 8v96a8 8 0 0 0 8 8h464a8 8 0 0 0 8-8v-96a8 8 0 0 0 -8-8z"/><path d="m53.657 421.657 15.993-15.992a24.037 24.037 0 0 0 27.32-4.694 23.989 23.989 0 1 0 -38.636-6.62l-15.991 15.992zm20.687-43.314a8 8 0 1 1 11.313 11.313 8 8 0 1 1 -11.312-11.314z"/><path d="m112 400h16v16h-16z"/><path d="m144 400h16v16h-16z"/><path d="m176 400h16v16h-16z"/><path d="m208 400h16v16h-16z"/><path d="m240 400h16v16h-16z"/><path d="m272 368h16v48h-16z"/><path d="m344 184v-96a24.028 24.028 0 0 0 -24-24h-240a24.028 24.028 0 0 0 -24 24v232h16v-232a8.009 8.009 0 0 1 8-8h240a8.009 8.009 0 0 1 8 8v96z"/><circle cx="88" cy="96" r="8"/><circle cx="112" cy="96" r="8"/><circle cx="136" cy="96" r="8"/><path d="m192 208v-80a8 8 0 0 0 -8-8h-88a8 8 0 0 0 -8 8v80a8 8 0 0 0 8 8h88a8 8 0 0 0 8-8zm-16-8h-72v-64h72z"/><path d="m208 128h24v16h-24z"/><path d="m248 128h64v16h-64z"/><path d="m208 160h72v16h-72z"/><path d="m208 192h48v16h-48z"/><path d="m272 192h16v16h-16z"/><path d="m96 232h64v16h-64z"/><path d="m176 232h64v16h-64z"/><path d="m312 320v-48a8 8 0 0 0 -8-8h-208a8 8 0 0 0 -8 8v48h16v-40h192v40z"/><path d="m372.059 422.962a8 8 0 0 0 8.057-.1l40-24a8 8 0 0 0 3.884-6.862v-45.4l62.47-85.9a8 8 0 0 0 1.53-4.7v-40a8 8 0 0 0 -8-8h-160a8 8 0 0 0 -8 8v40a8 8 0 0 0 1.251 4.3l54.749 86.029v69.671a8 8 0 0 0 4.059 6.962zm-37.486-158.962h25.427v-16h-32v-24h144v24h-40v16h32.29l-54.76 75.3a8 8 0 0 0 -1.53 4.7v43.471l-24 14.4v-57.871a8 8 0 0 0 -1.251-4.3z"/><path d="m400 248h16v16h-16z"/></svg>