<svg id="Layer_2" enable-background="new 0 0 512 512" height="512" viewBox="0 0 512 512" width="512" xmlns="http://www.w3.org/2000/svg"><g><g><path d="m72 10h368v176h-368z" fill="#98ca69"/><path d="m430 45.5v105c-14.08 0-25.5 11.42-25.5 25.5h-297c0-14.08-11.42-25.5-25.5-25.5v-105c14.08 0 25.5-11.42 25.5-25.5h297c0 14.08 11.42 25.5 25.5 25.5z" fill="#75aa40"/><path d="m116.066 166c-3.396-11.549-12.518-20.671-24.066-24.066v-87.868c11.549-3.396 20.671-12.518 24.066-24.066h279.867c3.396 11.549 12.518 20.671 24.066 24.066v87.867c-11.549 3.396-20.671 12.518-24.066 24.066h-279.867z" fill="#98ca69"/><g><circle cx="256" cy="98" fill="#75aa40" r="56"/><path d="m256 92c-5.584 0-10.127-4.543-10.127-10.128 0-5.584 4.543-10.127 10.127-10.127s10.127 4.543 10.127 10.127h12c0-10.122-6.834-18.671-16.127-21.293v-9.579h-12v9.579c-9.294 2.623-16.127 11.172-16.127 21.293 0 12.201 9.926 22.128 22.127 22.128 5.584 0 10.127 4.543 10.127 10.128 0 5.584-4.543 10.127-10.127 10.127s-10.127-4.543-10.127-10.127h-12c0 10.122 6.834 18.671 16.127 21.293v9.579h12v-9.579c9.294-2.623 16.127-11.172 16.127-21.293 0-12.201-9.926-22.128-22.127-22.128z" fill="#98ca69"/></g></g><g><g><circle cx="380" cy="196" fill="#ffe352" r="60"/><circle cx="380" cy="196" fill="#ffb236" r="54"/><circle cx="380" cy="196" fill="#ffe352" r="48"/><path d="m380 190c-4.411 0-8-3.589-8-8s3.589-8 8-8 8 3.589 8 8h12c0-8.938-5.895-16.523-14-19.078v-7.722h-12v7.722c-8.105 2.555-14 10.139-14 19.078 0 11.028 8.972 20 20 20 4.411 0 8 3.589 8 8s-3.589 8-8 8-8-3.589-8-8h-12c0 8.938 5.895 16.523 14 19.078v7.722h12v-7.722c8.105-2.555 14-10.139 14-19.078 0-11.028-8.972-20-20-20z" fill="#6e83b7"/></g><g><g><path d="m464.5 502h-169c-4.142 0-7.5-3.358-7.5-7.5v-231c0-4.142 3.358-7.5 7.5-7.5h169c4.142 0 7.5 3.358 7.5 7.5v231c0 4.142-3.358 7.5-7.5 7.5z" fill="#6e83b7"/><path d="m288 315.5h184v5h-184z" fill="#466089"/><path d="m364 212h32v150h-32z" fill="#80d6fb" transform="matrix(0 1 -1 0 667 -93)"/><path d="m377.5 225.5h5v150h-5z" fill="#46bee8" transform="matrix(0 1 -1 0 680.5 -79.5)"/></g><g fill="#edeff1"><path d="m372 405h-64c-1.657 0-3-1.343-3-3v-64c0-1.657 1.343-3 3-3h64c1.657 0 3 1.343 3 3v64c0 1.657-1.343 3-3 3z"/><path d="m452 405h-64c-1.657 0-3-1.343-3-3v-64c0-1.657 1.343-3 3-3h64c1.657 0 3 1.343 3 3v64c0 1.657-1.343 3-3 3z"/><path d="m372 485h-64c-1.657 0-3-1.343-3-3v-64c0-1.657 1.343-3 3-3h64c1.657 0 3 1.343 3 3v64c0 1.657-1.343 3-3 3z"/><path d="m452 485h-64c-1.657 0-3-1.343-3-3v-64c0-1.657 1.343-3 3-3h64c1.657 0 3 1.343 3 3v64c0 1.657-1.343 3-3 3z"/></g><g fill="#6e83b7"><path d="m361.5 365h-16.5v-16.5h-10v16.5h-16.5v10h16.5v16.5h10v-16.5h16.5z"/><path d="m359.286 437.785-7.072-7.07-12.214 12.214-12.214-12.214-7.072 7.07 12.215 12.215-12.215 12.215 7.072 7.07 12.214-12.214 12.214 12.214 7.072-7.07-12.215-12.215z"/><path d="m398.5 365h43v10h-43z"/><g><circle cx="420" cy="433.191" r="5.864"/><circle cx="420" cy="466.809" r="5.864"/><path d="m398.5 445h43v10h-43z"/></g></g></g></g><g><g><g><path d="m164 350h112v38h-112z" fill="#ffe352"/><path d="m261.6 378v-15h-10v15h-14.4v-15h-10v15h-14.4v-15h-10v15h-14.4v-15h-10v15h-14.4v10h112v-10z" fill="#ffb236"/></g><g><path d="m164 312h112v38h-112z" fill="#ffe352"/><path d="m261.6 340v-15h-10v15h-14.4v-15h-10v15h-14.4v-15h-10v15h-14.4v-15h-10v15h-14.4v10h112v-10z" fill="#ffb236"/></g><g><path d="m164 274h112v38h-112z" fill="#ffe352"/><path d="m261.6 302v-15h-10v15h-14.4v-15h-10v15h-14.4v-15h-10v15h-14.4v-15h-10v15h-14.4v10h112v-10z" fill="#ffb236"/></g><g><path d="m164 236h112v38h-112z" fill="#ffe352"/><path d="m261.6 264v-15h-10v15h-14.4v-15h-10v15h-14.4v-15h-10v15h-14.4v-15h-10v15h-14.4v10h112v-10z" fill="#ffb236"/></g><g><path d="m164 198h112v38h-112z" fill="#ffe352"/><path d="m261.6 226v-15h-10v15h-14.4v-15h-10v15h-14.4v-15h-10v15h-14.4v-15h-10v15h-14.4v10h112v-10z" fill="#ffb236"/></g><g><path d="m164 388h112v38h-112z" fill="#ffe352"/><path d="m261.6 416v-15h-10v15h-14.4v-15h-10v15h-14.4v-15h-10v15h-14.4v-15h-10v15h-14.4v10h112v-10z" fill="#ffb236"/></g><g><path d="m164 426h112v38h-112z" fill="#ffe352"/><path d="m261.6 454v-15h-10v15h-14.4v-15h-10v15h-14.4v-15h-10v15h-14.4v-15h-10v15h-14.4v10h112v-10z" fill="#ffb236"/></g><g><path d="m164 464h112v38h-112z" fill="#ffe352"/><path d="m261.6 492v-15h-10v15h-14.4v-15h-10v15h-14.4v-15h-10v15h-14.4v-15h-10v15h-14.4v10h112v-10z" fill="#ffb236"/></g></g><g><g><path d="m40 350h112v38h-112z" fill="#ffe352"/><path d="m137.6 378v-15h-10v15h-14.4v-15h-10v15h-14.4v-15h-10v15h-14.4v-15h-10v15h-14.4v10h112v-10z" fill="#ffb236"/></g><g><path d="m40 312h112v38h-112z" fill="#ffe352"/><path d="m137.6 340v-15h-10v15h-14.4v-15h-10v15h-14.4v-15h-10v15h-14.4v-15h-10v15h-14.4v10h112v-10z" fill="#ffb236"/></g><g><path d="m40 274h112v38h-112z" fill="#ffe352"/><path d="m137.6 302v-15h-10v15h-14.4v-15h-10v15h-14.4v-15h-10v15h-14.4v-15h-10v15h-14.4v10h112v-10z" fill="#ffb236"/></g><g><path d="m40 388h112v38h-112z" fill="#ffe352"/><path d="m137.6 416v-15h-10v15h-14.4v-15h-10v15h-14.4v-15h-10v15h-14.4v-15h-10v15h-14.4v10h112v-10z" fill="#ffb236"/></g><g><path d="m40 426h112v38h-112z" fill="#ffe352"/><path d="m137.6 454v-15h-10v15h-14.4v-15h-10v15h-14.4v-15h-10v15h-14.4v-15h-10v15h-14.4v10h112v-10z" fill="#ffb236"/></g><g><path d="m40 464h112v38h-112z" fill="#ffe352"/><path d="m137.6 492v-15h-10v15h-14.4v-15h-10v15h-14.4v-15h-10v15h-14.4v-15h-10v15h-14.4v10h112v-10z" fill="#ffb236"/></g></g></g></g></svg>