<svg id="Layer_3" enable-background="new 0 0 64 64" height="512" viewBox="0 0 64 64" width="512" xmlns="http://www.w3.org/2000/svg"><path d="m52 34.919c1.041-.137 2.055-.447 3-.919l1.948-6.492c.697-2.326 1.052-4.742 1.052-7.171 0-6.619-2.629-12.966-7.31-17.647l-.69-.69-.69.69c-4.681 4.681-7.31 11.028-7.31 17.647 0 2.429.355 4.845 1.052 7.171l1.948 6.492c.945.472 1.959.782 3 .919" fill="#c9c9c9"/><path d="m52.31 4.771c-4.681 4.681-7.31 11.028-7.31 17.647 0 2.429.355 4.845 1.052 7.171l1.58 5.266c.123.021.244.048.368.064h4c1.041-.137 2.055-.447 3-.919l1.948-6.492c.697-2.326 1.052-4.742 1.052-7.171 0-5.741-1.981-11.275-5.559-15.697z" fill="#ddd"/><path d="m2 58h60v4h-60z" fill="#5a5b5d"/><path d="m6 60h56v-2h-58c0 1.105.895 2 2 2z" fill="#777"/><path d="m5 58v-12h6v12" fill="#c43535"/><path d="m17 58v-18h6v18" fill="#f9cb6e"/><path d="m29 58v-24h6v24" fill="#c43535"/><path d="m54 40v3c2.209 0 4 1.791 4 4s-1.791 4-4 4c-.047 0-.091-.012-.137-.014-.441 1.73-1.996 3.014-3.863 3.014s-3.422-1.284-3.863-3.014c-.046.002-.09.014-.137.014-2.209 0-4-1.791-4-4s1.791-4 4-4v-3" fill="#c9c9c9"/><path d="m58 47c0-2.209-1.791-4-4-4v-3h-6v7c0 2.209 1.791 4 4 4h1.858c.001-.005.004-.009.005-.014.046.002.09.014.137.014 2.209 0 4-1.791 4-4z" fill="#ddd"/><g fill="#c43535"><path d="m50 29.999c-1.281 1.281-2 3.018-2 4.829 0 1.416.419 2.8 1.204 3.978l.796 1.194.796-1.193c.785-1.178 1.204-2.562 1.204-3.978 0-1.811-.719-3.549-2-4.83z"/><path d="m43.85 30.168c-1.648.494-2.85 2.022-2.85 3.832v6l4-6"/><path d="m56.15 30.168c1.648.494 2.85 2.023 2.85 3.832v6l-4-6"/></g><circle cx="50" cy="18" fill="#4084c1" r="4"/><path d="m50 10c1.995 0 3.985.197 5.942.588l.078.016c-1.24-2.928-3.037-5.621-5.329-7.913l-.691-.691-.69.69c-2.292 2.292-4.088 4.986-5.329 7.913l.077-.016c1.957-.39 3.947-.587 5.942-.587z" fill="#c43535"/><path d="m52.31 4.771c-1.586 1.586-2.93 3.367-4.023 5.282.57-.032 1.141-.053 1.713-.053 1.995 0 3.985.197 5.942.588l.078.016c-.904-2.134-2.111-4.139-3.583-5.959z" fill="#dc4a4a"/><path d="m49 15c-.849 0-1.633.268-2.281.719-.451.648-.719 1.432-.719 2.281 0 2.209 1.791 4 4 4 .849 0 1.633-.268 2.281-.72.451-.647.719-1.431.719-2.28 0-2.209-1.791-4-4-4z" fill="#59a2d8"/><g><path d="m50 55c-2.019 0-3.809-1.215-4.584-3.034-2.483-.29-4.416-2.406-4.416-4.966 0-2.415 1.721-4.435 4-4.899v-2.101h2v3c0 .552-.448 1-1 1-1.654 0-3 1.346-3 3s1.346 3 3 3c-.011-.005.046-.011.105-.013.462-.019.885.298 1.001.752.34 1.331 1.53 2.261 2.894 2.261s2.554-.93 2.894-2.261c.116-.454.544-.769 1.001-.752.037.001.138.011.174.017 1.585-.004 2.931-1.35 2.931-3.004s-1.346-3-3-3c-.552 0-1-.448-1-1v-3h2v2.101c2.279.464 4 2.485 4 4.899 0 2.56-1.933 4.676-4.416 4.966-.775 1.819-2.565 3.034-4.584 3.034z" fill="#969696"/></g><g><path d="m2 33.998 7.607-2.173c8.433-2.408 15.245-8.639 18.393-16.825h-5l8-9 7 9h-4c-3.774 10.694-12.396 18.968-23.235 22.303-4.818 1.482-8.765 2.696-8.765 2.695z" fill="#52a04f"/><path d="m31 6-8 9h5c-3.148 8.186-9.96 14.417-18.393 16.826l-7.607 2.172v3.002l9.147-3.154c11.88-4.097 19.853-15.279 19.853-27.846z" fill="#40873c"/></g><path d="m8 46v7c0 1.657 1.343 3 3 3v-10z" fill="#dc4a4a"/><path d="m32 34v19c0 1.657 1.343 3 3 3v-22z" fill="#dc4a4a"/><path d="m20 40v13c0 1.657 1.343 3 3 3v-16z" fill="#ffd997"/></svg>